<?xml version="1.0" encoding="UTF-8" standalone="no"?>
<!-- Created with Inkscape (http://www.inkscape.org/) -->
<svg
   xmlns:svg="http://www.w3.org/2000/svg"
   xmlns="http://www.w3.org/2000/svg"
   version="1.0"
   width="113.31"
   height="113.31"
   id="svg2">
  <defs
     id="defs5" />
  <path
     d="M 49.533017,112.4177 C 47.977528,110.86221 48.293955,108.90596 50.632204,105.6222 C 53.35293,101.80129 54.756511,95.796711 53.330553,94.078534 C 50.695536,90.903532 39.680643,93.636485 33.961566,98.884261 C 32.835125,99.917871 30.559919,101.03426 28.905553,101.36514 C 24.987427,102.14876 23.029344,99.945801 23.876969,95.707681 C 25.847781,85.85362 39.430021,77.794321 54.066142,77.794321 C 60.202861,77.794321 60.265371,77.765672 60.884641,74.669321 C 61.228391,72.950571 61.509641,66.237375 61.509641,59.751108 C 61.509641,47.280229 61.926679,44.794321 64.018805,44.794321 C 66.923481,44.794321 67.877552,51.2093 68.276036,73.419077 C 68.654938,94.537444 68.571852,95.778941 66.44946,100.71258 C 62.908151,108.94457 52.950183,115.83486 49.533017,112.4177 z M 83.086592,84.228414 C 81.540217,82.68204 81.402113,81.614245 82.13323,76.857203 C 82.603463,73.797618 82.978895,67.694321 82.967525,63.294321 C 82.949169,56.191214 82.562397,54.533455 79.517636,48.507639 C 77.631568,44.774964 74.016581,39.374964 71.484333,36.507639 C 65.946726,30.237277 59.509641,20.63826 59.509641,18.650914 C 59.509641,17.860897 58.812603,14.53841 57.960668,11.267612 C 56.094376,4.1024301 56.666782,1.0439699 60.032156,0.19931476 C 64.063132,-0.81239574 67.026191,1.9867238 69.90825,9.5289847 C 71.342846,13.283278 74.57613,19.941327 77.093325,24.324647 C 88.073047,43.444196 91.462459,52.569277 91.49486,63.096916 C 91.514661,69.529987 88.771641,81.249197 86.625859,83.899126 C 84.956077,85.961219 84.831031,85.972853 83.086592,84.228414 z "
     style="fill:#000000"
     id="path2191" />
</svg>
