<?xml version="1.0" encoding="UTF-8" standalone="no"?>
<!-- Created with Inkscape (http://www.inkscape.org/) -->
<svg
   xmlns:a="http://ns.adobe.com/AdobeSVGViewerExtensions/3.0/"
   xmlns:dc="http://purl.org/dc/elements/1.1/"
   xmlns:cc="http://web.resource.org/cc/"
   xmlns:rdf="http://www.w3.org/1999/02/22-rdf-syntax-ns#"
   xmlns:svg="http://www.w3.org/2000/svg"
   xmlns="http://www.w3.org/2000/svg"
   xmlns:sodipodi="http://sodipodi.sourceforge.net/DTD/sodipodi-0.dtd"
   xmlns:inkscape="http://www.inkscape.org/namespaces/inkscape"
   version="1.0"
   width="128"
   height="128"
   viewBox="0 0 128 128"
   id="svg2"
   xml:space="preserve"
   sodipodi:version="0.32"
   inkscape:version="0.45.1"
   sodipodi:docname="lydoc1.svg"
   sodipodi:docbase="/home/wilbert/Desktop"
   inkscape:output_extension="org.inkscape.output.svg.inkscape"><metadata
   id="metadata44"><rdf:RDF><cc:Work
       rdf:about=""><dc:format>image/svg+xml</dc:format><dc:type
         rdf:resource="http://purl.org/dc/dcmitype/StillImage" /></cc:Work></rdf:RDF></metadata><sodipodi:namedview
   inkscape:cy="99.448987"
   inkscape:cx="74.320818"
   inkscape:zoom="3.989736"
   inkscape:window-height="586"
   inkscape:window-width="818"
   inkscape:pageshadow="2"
   inkscape:pageopacity="0.0"
   guidetolerance="10.0"
   gridtolerance="10.0"
   objecttolerance="10.0"
   borderopacity="1.0"
   bordercolor="#666666"
   pagecolor="#ffffff"
   id="base"
   inkscape:window-x="175"
   inkscape:window-y="144"
   inkscape:current-layer="svg2" /><defs
   id="defs69" />
	<g
   id="Layer_1">
		<g
   id="g5">
			<path
   d="M 121.164,1.052 L 6.836,1.052 L 6.836,126.948 L 87.537,126.948 L 121.164,93.321 L 121.164,1.052 L 121.164,1.052 z "
   style="fill:#ffffff"
   id="path7" />
			<linearGradient
   x1="63.920399"
   y1="154.5645"
   x2="63.920399"
   y2="-100.9347"
   id="XMLID_1_"
   gradientUnits="userSpaceOnUse">
				<stop
   style="stop-color:#ffffff;stop-opacity:1"
   offset="0"
   id="stop10" />
				<stop
   style="stop-color:#f1f1f1;stop-opacity:1"
   offset="0.25799999"
   id="stop12" />
				<stop
   style="stop-color:#cecece;stop-opacity:1"
   offset="0.7396"
   id="stop14" />
				<stop
   style="stop-color:#c4c4c4;stop-opacity:1"
   offset="0.85949999"
   id="stop16" />
				<a:midPointStop
   style="stop-color:#FFFFFF"
   offset="0" />
				<a:midPointStop
   style="stop-color:#FFFFFF"
   offset="0.5674" />
				<a:midPointStop
   style="stop-color:#C4C4C4"
   offset="0.8595" />
			</linearGradient>
			<path
   d="M 117.734,4.019 L 10.266,4.019 L 10.106,126.673 L 86.563,126.673 L 117.735,95.421 L 117.735,4.019 L 117.734,4.019 z "
   style="fill:url(#XMLID_1_)"
   id="path18" />
			
				<radialGradient
   cx="108.4668"
   cy="118.249"
   r="34.736401"
   fx="108.4668"
   fy="118.249"
   id="XMLID_2_"
   gradientUnits="userSpaceOnUse">
				<stop
   style="stop-color:#000000;stop-opacity:1"
   offset="0"
   id="stop21" />
				<stop
   style="stop-color:#000000;stop-opacity:1"
   offset="1"
   id="stop23" />
				<a:midPointStop
   style="stop-color:#000000"
   offset="0" />
				<a:midPointStop
   style="stop-color:#000000"
   offset="0.5" />
				<a:midPointStop
   style="stop-color:#000000"
   offset="1" />
			</radialGradient>
			<path
   d="M 85.191,90.976 L 85.191,126.73 L 86.984,126.73 L 120.623,93.091 L 120.623,90.976 L 85.191,90.976 L 85.191,90.976 z "
   style="opacity:0.1;fill:url(#XMLID_2_)"
   id="path25" />
			<linearGradient
   x1="-26.333"
   y1="-26.333"
   x2="56.166199"
   y2="56.166199"
   id="XMLID_3_"
   gradientUnits="userSpaceOnUse">
				<stop
   style="stop-color:#b3b3b3;stop-opacity:1"
   offset="0"
   id="stop28" />
				<stop
   style="stop-color:#828282;stop-opacity:1"
   offset="1"
   id="stop30" />
				<a:midPointStop
   style="stop-color:#B3B3B3"
   offset="0" />
				<a:midPointStop
   style="stop-color:#B3B3B3"
   offset="0.5" />
				<a:midPointStop
   style="stop-color:#828282"
   offset="1" />
			</linearGradient>
			<path
   d="M 121.164,0.552 L 6.336,0.552 L 6.336,127.448 L 87.744,127.448 L 121.664,93.528 L 121.664,0.552 L 121.164,0.552 z M 120.664,1.552 C 120.664,2.539 120.664,92.704 120.664,93.114 C 120.375,93.403 87.619,126.159 87.33,126.448 C 86.92,126.448 8.32,126.448 7.336,126.448 C 7.336,125.46 7.336,2.539 7.336,1.552 C 8.322,1.552 119.678,1.552 120.664,1.552 z "
   style="fill:url(#XMLID_3_)"
   id="path32" />
			<path
   d="M 87.537,126.948 L 121.164,93.321 L 87.537,93.321 L 87.537,126.948 z "
   style="fill:#ffffff"
   id="path34" />
			<linearGradient
   x1="104.0166"
   y1="98.180702"
   x2="95.088303"
   y2="135.79379"
   id="XMLID_4_"
   gradientUnits="userSpaceOnUse">
				<stop
   style="stop-color:#ffffff;stop-opacity:1"
   offset="0"
   id="stop37" />
				<stop
   style="stop-color:#cccccc;stop-opacity:1"
   offset="1"
   id="stop39" />
				<a:midPointStop
   style="stop-color:#FFFFFF"
   offset="0" />
				<a:midPointStop
   style="stop-color:#FFFFFF"
   offset="0.5" />
				<a:midPointStop
   style="stop-color:#CCCCCC"
   offset="1" />
			</linearGradient>
			<path
   d="M 89.865,125.056 L 119.459,95.464 L 89.865,95.464 L 89.865,125.056 z "
   style="fill:url(#XMLID_4_)"
   id="path41" />
			<linearGradient
   x1="82.308601"
   y1="88.092796"
   x2="96.104301"
   y2="101.8885"
   id="XMLID_5_"
   gradientUnits="userSpaceOnUse">
				<stop
   style="stop-color:#b3b3b3;stop-opacity:1"
   offset="0"
   id="stop44" />
				<stop
   style="stop-color:#828282;stop-opacity:1"
   offset="1"
   id="stop46" />
				<a:midPointStop
   style="stop-color:#B3B3B3"
   offset="0" />
				<a:midPointStop
   style="stop-color:#B3B3B3"
   offset="0.5" />
				<a:midPointStop
   style="stop-color:#828282"
   offset="1" />
			</linearGradient>
			<path
   d="M 87.537,92.821 C 87.26,92.821 87.037,93.044 87.037,93.321 L 87.037,126.948 C 87.037,127.151 87.158,127.333 87.346,127.411 C 87.532,127.487 87.748,127.444 87.891,127.302 L 121.518,93.675 C 121.661,93.53 121.704,93.316 121.627,93.13 C 121.549,92.942 121.367,92.821 121.164,92.821 L 87.537,92.821 L 87.537,92.821 z M 119.957,93.821 C 118.377,95.399 89.615,124.161 88.037,125.741 C 88.037,123.532 88.037,94.755 88.037,93.821 C 88.971,93.821 117.748,93.821 119.957,93.821 z "
   style="fill:url(#XMLID_5_)"
   id="path48" />
			<linearGradient
   x1="43.0229"
   y1="25.4214"
   x2="204.00729"
   y2="111.0652"
   id="XMLID_6_"
   gradientUnits="userSpaceOnUse">
				<stop
   style="stop-color:#ffffff;stop-opacity:1"
   offset="0"
   id="stop51" />
				<stop
   style="stop-color:#e7e7e7;stop-opacity:1"
   offset="0.50330001"
   id="stop53" />
				<stop
   style="stop-color:#d4d4d4;stop-opacity:1"
   offset="1"
   id="stop55" />
				<a:midPointStop
   style="stop-color:#FFFFFF"
   offset="0" />
				<a:midPointStop
   style="stop-color:#FFFFFF"
   offset="0.452" />
				<a:midPointStop
   style="stop-color:#D4D4D4"
   offset="1" />
			</linearGradient>
			<path
   d="M 118.006,15.223 L 118.006,3.94 L 10.199,3.94 L 10.103,69.28 C 20.078,73.827 31.254,76.376 43.057,76.376 C 80.402,76.376 111.455,48.876 118.006,15.223 z "
   style="fill:url(#XMLID_6_)"
   id="path57" />
		</g>
		<path
   d="M 128,128 L 0,128 L 0,0 L 128,0 L 128,128 z "
   style="fill:none"
   id="path59" />
		<linearGradient
   x1="-56.222198"
   y1="10.6514"
   x2="74.819504"
   y2="10.6514"
   id="XMLID_7_"
   gradientUnits="userSpaceOnUse">
			<stop
   style="stop-color:#ffffff;stop-opacity:1"
   offset="0"
   id="stop62" />
			<stop
   style="stop-color:#628bff;stop-opacity:1"
   offset="1"
   id="stop64" />
			<a:midPointStop
   style="stop-color:#FFFFFF"
   offset="0" />
			<a:midPointStop
   style="stop-color:#FFFFFF"
   offset="0.5" />
			<a:midPointStop
   style="stop-color:#628BFF"
   offset="1" />
		</linearGradient>
		<path
   d="M 117.397,17.023 L 10.013,17.023 L 10.013,4.279 L 117.398,4.279 L 117.398,17.023 L 117.397,17.023 z "
   style="fill:url(#XMLID_7_)"
   id="path66" />
	</g>
<path
   d="M 55.696886,115.1153 C 54.401664,113.82007 54.665141,112.19113 56.612163,109.4568 C 58.877669,106.27519 60.046406,101.27528 58.859034,99.844586 C 56.664896,97.200813 47.492984,99.476493 42.730801,103.84623 C 41.792835,104.7069 39.898314,105.6365 38.520749,105.91202 C 35.258187,106.56453 33.627729,104.73016 34.333532,101.20114 C 35.974594,92.995838 47.284297,86.284997 59.471547,86.284997 C 64.58149,86.284997 64.633541,86.261141 65.149197,83.682862 C 65.435431,82.251687 65.669624,76.661723 65.669624,71.260717 C 65.669624,60.876427 66.016885,58.806453 67.758959,58.806453 C 70.177636,58.806453 70.972075,64.148098 71.303882,82.641804 C 71.619394,100.22672 71.550207,101.26048 69.782929,105.36864 C 66.834139,112.22328 58.542306,117.96071 55.696886,115.1153 z M 83.636386,91.642562 C 82.348741,90.354918 82.233748,89.465783 82.842538,85.504674 C 83.234091,82.95701 83.546706,77.874897 83.537238,74.211092 C 83.521959,68.296453 83.199893,66.916066 80.664572,61.89847 C 79.094083,58.790334 76.083942,54.293846 73.975379,51.906273 C 69.364305,46.685048 64.004258,38.692109 64.004258,37.03728 C 64.004258,36.379446 63.423844,33.612868 62.714456,30.889329 C 61.16042,24.923002 61.637056,22.376274 64.439343,21.672944 C 67.795872,20.830509 70.263162,23.16129 72.663005,29.441603 C 73.857563,32.567739 76.549868,38.111785 78.645891,41.761702 C 87.788518,57.682227 90.610831,65.280529 90.63781,74.046715 C 90.654297,79.403425 88.37023,89.161813 86.583476,91.368361 C 85.19307,93.085432 85.088951,93.095121 83.636386,91.642562 z "
   style="fill:#000000"
   id="path2191" /><path
   style="font-size:14px;font-style:normal;font-variant:normal;font-weight:bold;font-stretch:normal;text-align:start;line-height:100%;writing-mode:lr-tb;text-anchor:start;fill:#ffffff;fill-opacity:1;stroke:none;stroke-width:1pt;stroke-linecap:butt;stroke-linejoin:miter;stroke-opacity:1;font-family:Bitstream Vera Sans"
   d="M 12.774983,13.07314 L 15.235921,13.07314 L 15.235921,15.718648 L 12.774983,15.718648 L 12.774983,13.07314 M 17.96346,5.5125933 L 20.595296,5.5125933 L 20.595296,13.72939 L 25.21639,13.72939 L 25.21639,15.718648 L 17.96346,15.718648 L 17.96346,5.5125933 M 23.268147,5.5125933 L 26.146077,5.5125933 L 28.470296,9.149312 L 30.794515,5.5125933 L 33.67928,5.5125933 L 29.789632,11.418843 L 29.789632,15.718648 L 27.157796,15.718648 L 27.157796,11.418843 L 23.268147,5.5125933"
   id="text2266" />


</svg>